<?xml version="1.0" encoding="utf-8"?>
<!-- Generator: Adobe Illustrator 23.0.6, SVG Export Plug-In . SVG Version: 6.00 Build 0)  -->
<svg version="1.1" id="Capa_1" xmlns="http://www.w3.org/2000/svg" xmlns:xlink="http://www.w3.org/1999/xlink" x="0px" y="0px"
	 viewBox="0 0 118.6 126.2" style="enable-background:new 0 0 118.6 126.2;" xml:space="preserve">
<style type="text/css">
	.st0{fill:none;stroke:#010202;stroke-width:1.3;stroke-linecap:round;stroke-linejoin:round;}
	.st1{fill:none;}
</style>
<g id="Grupo_7" transform="translate(-230.999 -141.286)">
	<g id="Grupo_6" transform="translate(230.999 141.286)">
		<g id="Grupo_5">
			<g id="Grupo_3">
				<path id="Trazado_1" class="st0" d="M64.3,54.9v2.6H54.3v-2.6c0-2.8,2.3-5,5.1-5C62.1,50,64.3,52.2,64.3,54.9L64.3,54.9z"/>
				<path id="Trazado_2" class="st0" d="M67.4,57.5v10.4c0,1-0.8,1.7-1.7,1.7H52.8c-0.9,0-1.6-0.7-1.6-1.6c0,0,0,0,0,0V57.5H67.4
					L67.4,57.5z"/>
				<path id="Trazado_3" class="st0" d="M9.4,63.3l-2.1,0.4c-0.5,0.1-0.8,0.5-0.8,1l-0.2,2.1l-1.1-1.9c-0.2-0.4-0.7-0.6-1.1-0.5
					l-2.1,0.4l1.4-1.6c0.3-0.3,0.4-0.8,0.1-1.2l-1.1-1.9l2,0.9c0.4,0.2,1,0.1,1.2-0.3L7,59.1l-0.2,2.2c0,0.5,0.2,0.9,0.6,1.1
					L9.4,63.3z"/>
				<path id="Trazado_4" class="st0" d="M17.3,90l-2.1,0.5c-0.5,0.1-0.8,0.5-0.8,0.9l-0.2,2.1l-1.1-1.9c-0.2-0.4-0.7-0.6-1.1-0.5
					l-2.1,0.4l1.5-1.6c0.3-0.3,0.4-0.8,0.1-1.2l-1.1-1.9l2,0.9c0.4,0.2,0.9,0.1,1.3-0.3l1.4-1.6l-0.2,2.2c0,0.5,0.2,0.9,0.6,1.1
					L17.3,90z"/>
				<path id="Trazado_5" class="st0" d="M36.2,108.2l-1.9,1.1c-0.4,0.2-0.6,0.7-0.5,1.1l0.4,2.1l-1.6-1.4c-0.3-0.3-0.8-0.4-1.2-0.1
					l-1.9,1.1l0.9-2c0.2-0.4,0.1-0.9-0.3-1.2l-1.6-1.4l2.2,0.2c0.5,0.1,0.9-0.2,1.1-0.6l0.9-2l0.4,2.1c0.1,0.5,0.5,0.8,1,0.8
					L36.2,108.2z"/>
				<path id="Trazado_6" class="st1" d="M120.5,64.9c0.4,0.4,0.5,1.1,0.1,1.5c-0.2,0.2-0.6,0.4-0.9,0.3l-4.7-0.5l-1.9,4.3
					c-0.2,0.5-0.9,0.8-1.4,0.5c-0.3-0.1-0.6-0.4-0.6-0.8l-1-4.5l-4.7-0.5c-0.6-0.1-1-0.6-0.9-1.2c0-0.4,0.3-0.7,0.6-0.8l4-2.3
					l-1-4.6c-0.1-0.6,0.2-1.1,0.8-1.3c0.4-0.1,0.7,0,1,0.3l3.4,3.1l4-2.4c0.5-0.3,1.2-0.1,1.5,0.4c0.2,0.3,0.2,0.7,0,1l-1.9,4.2
					L120.5,64.9z M114.4,64l2.1,0.2l-1.6-1.4c-0.4-0.3-0.5-0.8-0.3-1.3l0.9-2l-1.9,1.1c-0.4,0.2-0.9,0.2-1.2-0.1l-1.6-1.5l0.5,2.1
					c0.1,0.5-0.1,0.9-0.5,1.2l-1.9,1.1l2.2,0.2c0.5,0,0.8,0.4,0.9,0.8l0.4,2.1l0.9-2C113.5,64.2,114,64,114.4,64L114.4,64z"/>
				<path id="Trazado_7" class="st0" d="M116.6,64.2l-2.1-0.2c-0.5,0-0.9,0.2-1.1,0.6l-0.9,2l-0.4-2.1c-0.1-0.5-0.5-0.8-0.9-0.8
					l-2.2-0.2l1.9-1.1c0.4-0.2,0.6-0.7,0.5-1.2l-0.5-2.1l1.6,1.5c0.3,0.3,0.8,0.4,1.2,0.1l1.9-1.1l-0.9,2c-0.2,0.4-0.1,1,0.3,1.3
					L116.6,64.2z"/>
				<path id="Trazado_8" class="st1" d="M112.7,32.6c0.1,0.4,0,0.7-0.3,1l-3.1,3.4l2.4,4.1c0.3,0.5,0.1,1.1-0.4,1.4
					c-0.3,0.2-0.7,0.2-1,0l-4.2-1.9l-3.1,3.5c-0.4,0.4-1,0.5-1.4,0.1c0,0,0,0,0,0c-0.3-0.2-0.4-0.6-0.3-0.9l0.5-4.6l-4.3-1.9
					c-0.5-0.2-0.8-0.9-0.6-1.4c0.2-0.3,0.5-0.6,0.8-0.6l4.5-0.9l0.5-4.7c0.1-0.6,0.6-1,1.2-0.9c0,0,0,0,0,0c0.4,0,0.7,0.3,0.8,0.6
					l2.3,4l4.6-1C112,31.7,112.6,32,112.7,32.6z M107.2,36.1l1.5-1.6l-2.1,0.5c-0.4,0.1-0.9-0.1-1.1-0.5l-1.1-1.9l-0.2,2.2
					c0,0.5-0.4,0.8-0.8,0.9l-2.1,0.4l2,0.9c0.4,0.2,0.7,0.6,0.6,1.1l-0.2,2.2l1.4-1.6c0.3-0.4,0.8-0.5,1.3-0.3l2,0.9l-1.1-1.9
					C106.9,37,106.9,36.5,107.2,36.1L107.2,36.1z"/>
				<path id="Trazado_9" class="st1" d="M112.5,91.6c0.4,0.4,0.5,1.1,0.1,1.5c-0.2,0.3-0.6,0.4-0.9,0.4l-4.6-0.5l-1.9,4.3
					c-0.2,0.5-0.9,0.8-1.4,0.5c0,0,0,0,0,0c-0.3-0.1-0.6-0.4-0.6-0.8l-1-4.5L97.5,92c-0.6-0.1-1-0.6-1-1.2c0-0.4,0.3-0.7,0.6-0.8
					l4-2.3l-1-4.6c-0.1-0.6,0.2-1.1,0.8-1.3c0.4-0.1,0.7,0,1,0.3l3.4,3.1l4-2.4c0.5-0.3,1.1-0.1,1.4,0.4c0.2,0.3,0.2,0.7,0,1
					l-1.9,4.2L112.5,91.6z M106.5,90.8l2.2,0.2l-1.6-1.4c-0.4-0.3-0.5-0.8-0.3-1.3l0.9-2l-1.9,1.1c-0.4,0.2-0.9,0.2-1.2-0.1
					l-1.6-1.5l0.5,2.1c0.1,0.5-0.1,0.9-0.5,1.2l-1.9,1.1l2.1,0.2c0.5,0,0.9,0.4,1,0.8l0.5,2.1l0.9-2C105.6,91,106,90.7,106.5,90.8
					L106.5,90.8z"/>
				<path id="Trazado_10" class="st0" d="M108.7,34.5l-1.5,1.6c-0.3,0.3-0.4,0.8-0.1,1.2l1.1,1.9l-2-0.9c-0.4-0.2-1-0.1-1.3,0.3
					l-1.4,1.6l0.2-2.2c0-0.5-0.2-0.9-0.6-1.1l-2-0.9l2.1-0.4c0.5-0.1,0.8-0.5,0.8-0.9l0.2-2.2l1.1,1.9c0.2,0.4,0.7,0.6,1.1,0.5
					L108.7,34.5z"/>
				<path id="Trazado_11" class="st0" d="M108.6,91l-2.2-0.2c-0.5,0-0.9,0.2-1.1,0.6l-0.9,2l-0.5-2.1c-0.1-0.5-0.5-0.8-1-0.8
					l-2.1-0.2l1.9-1.1c0.4-0.2,0.6-0.7,0.5-1.2l-0.5-2.1l1.6,1.5c0.3,0.3,0.8,0.4,1.2,0.1l1.9-1.1l-0.9,2c-0.2,0.4-0.1,1,0.3,1.3
					L108.6,91z"/>
				<path id="Trazado_12" class="st1" d="M93.2,106.4c0.6,0.1,1,0.6,0.9,1.2c0,0.4-0.2,0.7-0.6,0.8l-4,2.3l1,4.6
					c0.1,0.6-0.2,1.1-0.8,1.3c-0.4,0.1-0.8,0-1-0.3l-3.4-3.1l-4,2.4c-0.5,0.3-1.1,0.1-1.4-0.4c0,0,0,0,0,0c-0.2-0.3-0.2-0.7,0-1
					l1.9-4.2l-3.5-3.1c-0.4-0.4-0.5-1-0.1-1.5c0,0,0,0,0,0c0.2-0.3,0.6-0.4,0.9-0.3l4.6,0.5l1.9-4.3c0.2-0.5,0.9-0.8,1.4-0.6
					c0.3,0.2,0.6,0.5,0.6,0.8l0.9,4.5L93.2,106.4z M87.8,109.2l1.9-1.1l-2.2-0.2c-0.5-0.1-0.8-0.4-0.9-0.8l-0.4-2.1l-0.9,2
					c-0.2,0.4-0.6,0.7-1.1,0.6l-2.2-0.2l1.6,1.4c0.4,0.3,0.5,0.8,0.3,1.2l-0.9,2l1.9-1.1c0.4-0.2,0.9-0.2,1.2,0.1l1.6,1.4l-0.5-2.1
					C87.2,109.9,87.4,109.5,87.8,109.2L87.8,109.2z"/>
				<path id="Trazado_13" class="st1" d="M93.8,19.4c0.4,0.4,0.5,1.1,0.1,1.5c0,0,0,0,0,0c-0.2,0.3-0.6,0.4-0.9,0.4l-4.6-0.5
					L86.4,25c-0.2,0.5-0.9,0.8-1.4,0.5c0,0,0,0,0,0c-0.3-0.1-0.6-0.5-0.6-0.8l-1-4.5l-4.7-0.5c-0.6-0.1-1-0.6-0.9-1.2
					c0-0.4,0.3-0.7,0.6-0.8l4-2.3l-1-4.6c-0.1-0.6,0.3-1.1,0.8-1.2c0.4-0.1,0.7,0,1,0.3l3.4,3.1l4-2.4c0.5-0.3,1.1-0.1,1.4,0.4
					c0,0,0,0,0,0c0.2,0.3,0.2,0.7,0,1l-1.9,4.2L93.8,19.4z M87.8,18.6l2.2,0.2l-1.6-1.4c-0.4-0.3-0.5-0.8-0.3-1.2l0.9-2l-1.9,1.1
					c-0.4,0.2-0.9,0.2-1.2-0.1l-1.6-1.5l0.4,2.1c0.1,0.4-0.1,0.9-0.5,1.1L82.3,18l2.1,0.2c0.5,0,0.9,0.4,1,0.8l0.4,2.1l0.9-2
					C86.9,18.8,87.3,18.5,87.8,18.6L87.8,18.6z"/>
				<path id="Trazado_14" class="st1" d="M92.5,83l1.2,1.8h-2.3L90,82.8c-0.3-0.5-0.6-0.9-1-1.4c-0.2-0.2-0.4-0.3-0.6-0.4
					c-0.3-0.1-0.6-0.1-1-0.1h-0.4v3.9h-1.9v-9.4h4c0.7,0,1.5,0,2.2,0.2c0.5,0.2,0.8,0.5,1.1,0.9c0.3,0.4,0.4,1,0.4,1.5
					c0,0.6-0.2,1.3-0.6,1.7c-0.5,0.5-1.2,0.8-1.9,0.9c0.4,0.2,0.7,0.5,1,0.8C91.8,81.9,92.2,82.4,92.5,83z M90.7,78.9
					c0.1-0.2,0.2-0.5,0.2-0.7c0-0.3-0.1-0.6-0.3-0.8c-0.2-0.2-0.4-0.3-0.7-0.4c-0.5,0-0.9-0.1-1.4,0h-1.5v2.4h1.4
					c0.6,0,1.1,0,1.7-0.1C90.4,79.2,90.6,79.1,90.7,78.9L90.7,78.9z"/>
				<path id="Trazado_15" class="st0" d="M89.9,18.8l-2.2-0.2c-0.5,0-0.9,0.2-1.1,0.6l-0.9,2l-0.4-2.1c-0.1-0.5-0.5-0.8-1-0.8
					L82.3,18l1.9-1.1c0.4-0.2,0.6-0.7,0.5-1.1l-0.4-2.1l1.6,1.5c0.3,0.3,0.8,0.4,1.2,0.1l1.9-1.1l-0.9,2c-0.2,0.4-0.1,0.9,0.3,1.2
					L89.9,18.8z"/>
				<path id="Trazado_16" class="st0" d="M89.7,108.2l-1.9,1.1c-0.4,0.2-0.6,0.7-0.5,1.1l0.5,2.1l-1.6-1.4c-0.3-0.3-0.8-0.4-1.2-0.1
					l-1.9,1.1l0.9-2c0.2-0.4,0.1-0.9-0.3-1.2l-1.6-1.4l2.2,0.2c0.5,0.1,0.9-0.2,1.1-0.6l0.9-2l0.4,2.1c0.1,0.5,0.5,0.8,0.9,0.8
					L89.7,108.2z"/>
				<path id="Trazado_17" class="st1" d="M83.6,78.3c0,0.5-0.1,1-0.3,1.5c-0.2,0.4-0.5,0.7-0.8,0.9c-0.3,0.2-0.6,0.4-1,0.5
					c-0.7,0.1-1.3,0.1-2,0.1h-1.2v3.6h-1.9v-9.4h3c0.8,0,1.5,0,2.3,0.1c0.5,0.2,1,0.5,1.4,0.9C83.4,77,83.6,77.6,83.6,78.3z
					 M81.4,79c0.1-0.2,0.2-0.5,0.2-0.7c0-0.3-0.1-0.6-0.3-0.8c-0.2-0.2-0.5-0.4-0.8-0.4C80.1,77,79.6,77,79.2,77h-0.9v2.7h1
					c0.5,0,1,0,1.5-0.2C81.1,79.4,81.3,79.3,81.4,79L81.4,79z"/>
				<path id="Trazado_18" class="st1" d="M74.4,78c0.2,0.7,0.3,1.5,0.3,2.2c0,0.7-0.1,1.4-0.3,2c-0.2,0.6-0.5,1.2-1,1.7
					c-0.4,0.3-0.8,0.6-1.3,0.7c-0.5,0.2-1.1,0.2-1.7,0.2h-3.6v-9.4h3.5c0.6,0,1.2,0,1.8,0.2c0.5,0.2,1,0.4,1.4,0.9
					C73.9,76.9,74.2,77.4,74.4,78z M72.8,80.1c0-0.6,0-1.1-0.2-1.7c-0.1-0.3-0.3-0.7-0.5-0.9c-0.2-0.2-0.6-0.4-0.9-0.4
					c-0.5-0.1-1-0.1-1.6-0.1h-0.9v6.3h1.4c0.4,0,0.8,0,1.2-0.1c0.3-0.1,0.5-0.2,0.7-0.4c0.2-0.3,0.4-0.6,0.5-0.9
					C72.7,81.3,72.8,80.7,72.8,80.1L72.8,80.1z"/>
				<path id="Trazado_19" class="st1" d="M66.4,114.4c0.6,0,1,0.5,0.9,1.1c0,0,0,0,0,0c0,0.4-0.2,0.7-0.6,0.8l-4,2.3l1,4.6
					c0.1,0.6-0.2,1.1-0.8,1.3c-0.4,0.1-0.7,0-1-0.3l-3.4-3.1l-4,2.4c-0.5,0.3-1.2,0.1-1.4-0.4c0,0,0,0,0,0c-0.2-0.3-0.2-0.7,0-1
					l1.9-4.2l-3.5-3.1c-0.4-0.4-0.5-1.1-0.1-1.5c0,0,0,0,0,0c0.2-0.3,0.6-0.4,0.9-0.4l4.7,0.5l1.9-4.3c0.2-0.5,0.9-0.8,1.4-0.5
					c0.3,0.1,0.6,0.5,0.6,0.8l1,4.5L66.4,114.4z M61.1,117.2l1.9-1.1l-2.1-0.2c-0.5,0-0.8-0.4-0.9-0.8l-0.4-2.1l-0.9,2
					c-0.2,0.4-0.6,0.7-1.1,0.6l-2.2-0.2l1.6,1.4c0.4,0.3,0.5,0.8,0.3,1.2l-0.9,2l1.9-1.1c0.4-0.2,0.9-0.2,1.2,0.1l1.6,1.5l-0.4-2.1
					C60.5,117.9,60.7,117.5,61.1,117.2L61.1,117.2z"/>
				<path id="Trazado_20" class="st1" d="M67,11.4c0.4,0.4,0.5,1,0.1,1.5c0,0,0,0,0,0c-0.2,0.3-0.6,0.4-0.9,0.4l-4.6-0.5l-1.9,4.3
					c-0.2,0.5-0.9,0.8-1.4,0.5c-0.3-0.1-0.6-0.5-0.6-0.8l-0.9-4.5l-4.7-0.5c-0.6-0.1-1-0.6-0.9-1.2c0-0.3,0.3-0.7,0.6-0.8l4-2.3
					l-1-4.6c-0.1-0.6,0.2-1.1,0.8-1.3c0.4-0.1,0.7,0.1,1,0.3l3.4,3.1l4-2.4c0.5-0.3,1.1-0.1,1.4,0.4c0,0,0,0,0,0
					c0.2,0.3,0.2,0.7,0,1l-1.9,4.2L67,11.4z M61,10.6l2.2,0.2l-1.6-1.4c-0.4-0.3-0.5-0.8-0.3-1.2l0.9-2l-1.9,1.1
					c-0.4,0.2-0.9,0.2-1.2-0.1l-1.6-1.4l0.5,2.1c0.1,0.4-0.1,0.9-0.5,1.1L55.5,10l2.1,0.2c0.5,0,0.8,0.4,0.9,0.8l0.4,2.1l0.9-2
					C60.1,10.8,60.6,10.6,61,10.6L61,10.6z"/>
				<path id="Trazado_21" class="st1" d="M65.1,79.8v3.7c-0.5,0.5-1.1,0.8-1.7,1C62.6,84.9,61.8,85,61,85c-0.9,0-1.8-0.2-2.6-0.6
					c-0.7-0.4-1.3-1-1.6-1.8c-0.4-0.8-0.6-1.6-0.6-2.5c0-0.9,0.2-1.8,0.6-2.6c0.4-0.8,1-1.4,1.8-1.8c0.7-0.3,1.5-0.5,2.3-0.5
					c1-0.1,1.9,0.2,2.8,0.7c0.7,0.5,1.1,1.2,1.3,2l-1.9,0.4c-0.1-0.4-0.4-0.8-0.8-1.1c-0.4-0.3-0.9-0.4-1.4-0.4
					c-0.7,0-1.5,0.3-2,0.8c-0.5,0.7-0.8,1.5-0.7,2.4c-0.1,0.9,0.2,1.8,0.8,2.5c0.5,0.6,1.2,0.9,2,0.8c0.4,0,0.8-0.1,1.2-0.2
					c0.4-0.1,0.7-0.3,1-0.6v-1.2H61v-1.6L65.1,79.8z"/>
				<path id="Trazado_22" class="st0" d="M63.2,10.8L61,10.6c-0.5-0.1-0.9,0.2-1.1,0.6l-0.9,2l-0.4-2.1c-0.1-0.5-0.5-0.8-0.9-0.8
					L55.5,10l1.9-1.1c0.4-0.2,0.6-0.7,0.5-1.1l-0.5-2.1l1.6,1.4c0.3,0.3,0.8,0.4,1.2,0.1l1.9-1.1l-0.9,2c-0.2,0.4-0.1,1,0.3,1.2
					L63.2,10.8z"/>
				<path id="Trazado_23" class="st0" d="M63,116.1l-1.9,1.1c-0.4,0.2-0.6,0.7-0.5,1.1l0.4,2.1l-1.6-1.5c-0.3-0.3-0.8-0.4-1.2-0.1
					l-1.9,1.1l0.9-2c0.2-0.4,0.1-0.9-0.3-1.2l-1.6-1.4l2.2,0.2c0.5,0,0.9-0.2,1.1-0.6l0.9-2l0.4,2.1c0.1,0.5,0.5,0.8,0.9,0.8
					L63,116.1z"/>
				<path id="Trazado_24" class="st1" d="M39.7,106.4c0.6,0.1,1,0.6,1,1.2c0,0.4-0.2,0.7-0.6,0.8l-4,2.3l1,4.6
					c0.1,0.6-0.2,1.1-0.8,1.3c-0.4,0.1-0.7-0.1-1-0.3l-3.4-3.1l-4.1,2.3c-0.5,0.3-1.1,0.2-1.4-0.3c0,0,0,0,0-0.1
					c-0.2-0.3-0.2-0.7,0-1l1.9-4.2l-3.5-3.1c-0.4-0.4-0.5-1-0.1-1.5c0,0,0,0,0,0c0.2-0.3,0.6-0.4,0.9-0.3l4.6,0.5l1.9-4.3
					c0.2-0.5,0.8-0.8,1.4-0.6c0,0,0,0,0,0c0.3,0.2,0.6,0.5,0.6,0.8l1,4.5L39.7,106.4z M34.3,109.2l1.9-1.1l-2.1-0.2
					c-0.5,0-0.8-0.4-1-0.8l-0.4-2.1l-0.9,2c-0.2,0.4-0.6,0.7-1.1,0.6l-2.2-0.2l1.6,1.4c0.4,0.3,0.5,0.8,0.3,1.2l-0.9,2l1.9-1.1
					c0.4-0.2,0.9-0.2,1.2,0.1l1.6,1.4l-0.5-2.1C33.7,109.9,33.9,109.5,34.3,109.2z"/>
				<path id="Trazado_25" class="st1" d="M40.3,19.4c0.4,0.4,0.5,1,0.1,1.5c0,0,0,0,0,0c-0.2,0.2-0.6,0.4-0.9,0.4l-4.6-0.5L32.9,25
					c-0.2,0.5-0.9,0.8-1.4,0.6c-0.3-0.2-0.6-0.5-0.6-0.8l-1-4.5l-4.6-0.5c-0.6-0.1-1-0.6-1-1.2c0,0,0,0,0,0c0-0.4,0.3-0.7,0.6-0.8
					l4-2.3l-1-4.6c-0.1-0.6,0.3-1.1,0.8-1.2c0.4-0.1,0.7,0,1,0.3l3.4,3.1l4.1-2.4c0.5-0.3,1.2-0.1,1.4,0.4c0.2,0.3,0.2,0.7,0,1
					l-1.9,4.2L40.3,19.4z M34.3,18.6l2.2,0.2l-1.6-1.4c-0.4-0.3-0.5-0.8-0.3-1.2l0.9-2l-1.9,1.1c-0.4,0.2-0.9,0.2-1.2-0.1l-1.6-1.5
					l0.5,2.1c0.1,0.4-0.1,0.9-0.5,1.1L28.8,18l2.1,0.2c0.5,0,0.9,0.4,1,0.8l0.4,2.1l0.9-2C33.4,18.8,33.8,18.5,34.3,18.6L34.3,18.6z
					"/>
				<path id="Trazado_26" class="st0" d="M36.4,18.8l-2.2-0.2c-0.5-0.1-0.9,0.2-1.1,0.6l-0.9,2l-0.4-2.1c-0.1-0.5-0.5-0.8-1-0.8
					L28.8,18l1.9-1.1c0.4-0.2,0.6-0.7,0.5-1.1l-0.5-2.1l1.6,1.5c0.3,0.3,0.8,0.4,1.2,0.1l1.9-1.1l-0.9,2c-0.2,0.4-0.1,0.9,0.3,1.2
					L36.4,18.8z"/>
				<path id="Trazado_27" class="st1" d="M21.2,89.4c0.5,0.2,0.8,0.9,0.6,1.4c-0.2,0.3-0.5,0.6-0.8,0.6l-4.5,1L15.9,97
					c-0.1,0.6-0.6,1-1.2,0.9c-0.4,0-0.7-0.3-0.8-0.6l-2.3-4l-4.6,1c-0.6,0.1-1.1-0.2-1.3-0.8c-0.1-0.4,0-0.8,0.3-1l3.1-3.4l-2.4-4
					c-0.3-0.5-0.1-1.2,0.4-1.5c0.3-0.2,0.7-0.2,1,0l4.2,1.9l3.1-3.5c0.4-0.4,1.1-0.5,1.5-0.1c0.3,0.2,0.4,0.6,0.3,0.9l-0.5,4.6
					L21.2,89.4z M15.2,90.5l2.1-0.5l-2-0.9c-0.4-0.2-0.7-0.6-0.6-1.1l0.2-2.2l-1.4,1.6c-0.3,0.4-0.8,0.5-1.3,0.3l-2-0.9l1.1,1.9
					c0.2,0.4,0.2,0.9-0.1,1.2l-1.5,1.6l2.1-0.4c0.4-0.1,0.9,0.1,1.1,0.5l1.1,1.9l0.2-2.1C14.4,90.9,14.8,90.6,15.2,90.5L15.2,90.5z"
					/>
				<path id="Trazado_28" class="st1" d="M21.6,38.1c0.4,0.4,0.5,1.1,0.1,1.5c-0.2,0.3-0.6,0.4-0.9,0.3l-4.7-0.5l-1.9,4.3
					c-0.2,0.5-0.9,0.8-1.4,0.5c0,0,0,0,0,0c-0.3-0.1-0.6-0.4-0.6-0.8l-1-4.5l-4.6-0.5c-0.6-0.1-1-0.6-1-1.2c0-0.4,0.3-0.7,0.6-0.8
					l4-2.3l-1-4.6c-0.1-0.6,0.2-1.1,0.8-1.3c0.4-0.1,0.7,0,1,0.3l3.4,3.1l4.1-2.4c0.5-0.3,1.2-0.1,1.4,0.4c0.2,0.3,0.2,0.7,0,1
					L18.1,35L21.6,38.1z M15.6,37.2l2.2,0.2l-1.6-1.4c-0.4-0.3-0.5-0.8-0.3-1.2l0.9-2l-1.9,1.1c-0.4,0.2-0.9,0.2-1.2-0.1L12,32.3
					l0.4,2.1c0.1,0.5-0.1,0.9-0.5,1.1l-1.9,1.1l2.1,0.2c0.5,0,0.8,0.4,0.9,0.8l0.4,2.1l0.9-2C14.7,37.5,15.1,37.2,15.6,37.2
					L15.6,37.2z"/>
				<path id="Trazado_29" class="st0" d="M17.7,37.5l-2.2-0.2c-0.5,0-0.9,0.2-1.1,0.6l-0.9,2l-0.4-2.1c-0.1-0.5-0.5-0.8-0.9-0.8
					l-2.1-0.2l1.9-1.1c0.4-0.2,0.6-0.7,0.5-1.1L12,32.3l1.6,1.5c0.3,0.3,0.8,0.4,1.2,0.1l1.9-1.1l-0.9,2c-0.2,0.4-0.1,1,0.3,1.2
					L17.7,37.5z"/>
				<path id="Trazado_30" class="st1" d="M13.2,62.6c0.5,0.2,0.8,0.9,0.5,1.4c-0.1,0.3-0.5,0.6-0.8,0.6l-4.5,1L8,70.3
					c-0.1,0.6-0.6,1-1.1,1c-0.4,0-0.7-0.3-0.9-0.6l-2.3-4l-4.6,1c-0.6,0.1-1.1-0.2-1.3-0.8c0,0,0,0,0,0c-0.1-0.4,0-0.7,0.3-1
					l3.1-3.4l-2.3-4c-0.3-0.5-0.1-1.1,0.4-1.4c0,0,0,0,0,0c0.3-0.2,0.7-0.2,1,0l4.2,1.9l3.1-3.5c0.4-0.4,1.1-0.5,1.5-0.1
					c0.2,0.2,0.4,0.6,0.3,0.9L9,60.8L13.2,62.6z M7.3,63.7l2.1-0.4l-2-0.9c-0.4-0.2-0.7-0.6-0.6-1.1L7,59.1l-1.4,1.6
					c-0.3,0.4-0.8,0.5-1.2,0.3l-2-0.9L3.4,62c0.2,0.4,0.2,0.9-0.1,1.2l-1.4,1.6L4,64.4c0.5-0.1,0.9,0.1,1.1,0.5l1.1,1.9l0.2-2.1
					C6.4,64.2,6.8,63.8,7.3,63.7z"/>
			</g>
			<g id="Grupo_4" transform="translate(28.698 28.151)">
				<path id="Trazado_31" class="st0" d="M3.8,30.8C4.2,48,7.9,47.6,30.6,68.2c3.5-3.2,6.5-5.9,9.2-8.2"/>
				<path id="Trazado_32" class="st0" d="M55.1,44c3.4-6.6,2.1-14.5,2.1-37c-10.9,1.6-20,0.3-26.6-5.3C22.8,7,13.1,8.9,3.8,6.9
					c0,1.8,0,3.6,0,5.2"/>
				<path id="Trazado_33" class="st0" d="M35.6,29.4h3.1v10.4c0,1-0.8,1.7-1.7,1.7H24.1c-0.9,0-1.6-0.7-1.6-1.6c0,0,0,0,0,0V29.4
					h3.1"/>
				<path id="Trazado_34" class="st0" d="M25.6,29.4v-2.6c0-2.8,2.3-5,5.1-5c2.7,0,4.9,2.2,5,5v2.6H25.6z"/>
				<path id="Trazado_35" class="st0" d="M28,38l2.7-2.6l2.6-2.6"/>
				<path id="Trazado_36" class="st0" d="M33.3,38l-2.6-2.6L28,32.8"/>
				<line id="Línea_1" class="st0" x1="-2.2" y1="14.9" x2="9.9" y2="14.9"/>
				<line id="Línea_2" class="st0" x1="11.5" y1="14.9" x2="13.9" y2="14.9"/>
				<line id="Línea_3" class="st0" x1="-2.2" y1="19" x2="9.9" y2="19"/>
				<line id="Línea_4" class="st0" x1="11.5" y1="19" x2="13.9" y2="19"/>
				<line id="Línea_5" class="st0" x1="-2.2" y1="23.1" x2="9.9" y2="23.1"/>
				<line id="Línea_6" class="st0" x1="11.5" y1="23.1" x2="13.9" y2="23.1"/>
				<line id="Línea_7" class="st0" x1="-2.2" y1="27.2" x2="9.9" y2="27.2"/>
				<line id="Línea_8" class="st0" x1="11.5" y1="27.2" x2="13.9" y2="27.2"/>
			</g>
		</g>
	</g>
</g>
</svg>
