<?xml version="1.0" encoding="utf-8"?>
<!-- Generator: Adobe Illustrator 23.0.6, SVG Export Plug-In . SVG Version: 6.00 Build 0)  -->
<svg version="1.1" id="Capa_1" xmlns="http://www.w3.org/2000/svg" xmlns:xlink="http://www.w3.org/1999/xlink" x="0px" y="0px"
	 viewBox="0 0 210 50" style="enable-background:new 0 0 210 50;" xml:space="preserve">
<style type="text/css">
	.st0{fill-rule:evenodd;clip-rule:evenodd;fill:#E0E6E9;}
</style>
<title>logo</title>
<desc>Created with Sketch.</desc>
<g id="Symbols">
	<g transform="translate(-35.000000, -25.000000)">
		<g transform="translate(35.000000, 25.000000)">
			<path id="shape" class="st0" d="M158.4,1.2h50.8v18.7H197v28.6h-26.4V19.9h-12.2V1.2z M142.1,2.8v26.9H157v18.7l-41.3,0.1v-0.1
				V1.2h26.4h0.1C142.1,1.6,142.1,2.1,142.1,2.8z M83.9,0.6c13.4,0,24.4,10.9,24.4,24.4c0,13.4-10.9,24.4-24.4,24.4
				S59.5,38.4,59.5,24.9C59.5,11.5,70.5,0.6,83.9,0.6z M0,1.2h62.2l-31.1,48L0,1.2z"/>
		</g>
	</g>
</g>
</svg>
